<?xml version="1.0" encoding="UTF-8"?>
<svg xmlns="http://www.w3.org/2000/svg" xmlns:xlink="http://www.w3.org/1999/xlink" width="1000pt" height="237pt" viewBox="0 0 1000 237" version="1.1">
<g id="surface1">
<path style=" stroke:none;fill-rule:evenodd;fill:rgb(100%,100%,100%);fill-opacity:1;" d="M 60.695312 95.570312 C 105.972656 79.964844 113.679688 39.308594 107.898438 1.925781 C 107.898438 0.578125 109.054688 -0.386719 110.210938 0 C 153.566406 21.195312 202.3125 67.4375 202.3125 136.804688 C 202.3125 189.984375 161.078125 237 101.15625 237 C 57.171875 239 17.425781 210.921875 4.609375 168.796875 C -8.203125 126.671875 9.171875 81.21875 46.820312 58.382812 C 47.976562 57.613281 49.519531 58.382812 49.519531 59.730469 C 50.097656 66.859375 52.023438 84.78125 59.921875 95.570312 Z M 60.695312 95.570312 "/>
<path style=" stroke:none;fill-rule:evenodd;fill:rgb(100%,100%,100%);fill-opacity:1;" d="M 329.863281 194.800781 L 333.140625 190.949219 L 343.351562 223.320312 L 342.003906 224.667969 C 334.296875 231.796875 322.734375 235.457031 307.898438 235.457031 L 307.320312 235.457031 C 293.835938 235.457031 283.238281 231.605469 275.914062 224.476562 C 268.59375 217.152344 264.738281 206.171875 264.738281 192.296875 L 264.738281 104.046875 L 238.726562 104.046875 L 238.726562 68.402344 L 264.738281 68.402344 L 264.738281 25.433594 L 304.816406 25.433594 L 304.816406 68.402344 L 336.609375 68.402344 L 336.609375 104.046875 L 304.625 104.046875 L 304.625 183.625 C 304.625 187.289062 305.585938 199.042969 316.761719 199.042969 C 322.542969 199.042969 327.9375 196.921875 329.863281 194.609375 Z M 351.058594 231.796875 L 351.058594 68.59375 L 391.136719 68.59375 L 391.136719 231.796875 Z M 370.90625 1.925781 C 384.183594 1.925781 394.953125 12.671875 394.988281 25.949219 C 395.023438 39.226562 384.308594 50.027344 371.03125 50.097656 C 357.757812 50.167969 346.925781 39.480469 346.820312 26.203125 C 346.820312 13.101562 357.804688 1.925781 370.90625 1.925781 Z M 498.84375 64.546875 C 533.527344 64.546875 552.601562 83.433594 552.601562 117.921875 L 552.601562 231.605469 L 512.523438 231.605469 L 512.523438 127.554688 C 511.753906 109.058594 502.890625 100.582031 484.007812 100.582031 C 467.050781 100.582031 453.371094 110.984375 446.433594 119.847656 L 446.433594 231.605469 L 406.359375 231.605469 L 406.359375 68.789062 L 446.433594 68.789062 L 446.433594 86.128906 C 457.996094 74.953125 476.492188 64.933594 498.84375 64.933594 Z M 685.933594 85.550781 L 685.933594 8.863281 L 726.011719 8.863281 L 726.011719 231.992188 L 685.933594 231.992188 L 685.933594 215.035156 C 673.542969 228.105469 656.351562 235.550781 638.34375 235.652344 C 594.605469 235.652344 565.316406 201.355469 565.316406 150.292969 C 565.316406 99.039062 594.605469 64.742188 638.34375 64.742188 C 656.394531 64.824219 673.617188 72.351562 685.933594 85.550781 Z M 685.933594 120.042969 C 676.890625 108.261719 663.015625 101.183594 648.167969 100.773438 C 623.3125 100.773438 606.742188 120.621094 606.742188 150.292969 C 606.742188 179.773438 623.3125 199.621094 648.167969 199.621094 C 662.621094 199.621094 678.421875 191.914062 685.933594 180.738281 Z M 819.652344 64.742188 C 867.050781 64.742188 900 101.351562 900 153.375 L 900 164.359375 L 778.804688 164.359375 C 782.851562 187.289062 800.964844 201.933594 825.625 201.933594 C 841.234375 201.933594 858.382812 195.1875 868.207031 185.359375 L 870.90625 183.046875 L 889.980469 210.410156 L 888.054688 212.144531 C 870 228.152344 846.460938 236.574219 822.351562 235.652344 C 772.253906 235.652344 736.996094 200.390625 736.996094 150.101562 C 736.207031 127.664062 744.601562 105.878906 760.234375 89.769531 C 775.871094 73.660156 797.398438 64.621094 819.847656 64.742188 Z M 778.613281 134.105469 L 860.886719 134.105469 C 858.574219 109.636719 838.34375 98.460938 819.652344 98.460938 C 791.523438 98.460938 780.925781 119.65625 778.613281 134.300781 Z M 996.917969 64.742188 L 999.808594 64.742188 L 999.808594 105.203125 L 996.339844 104.625 C 993.449219 104.046875 989.789062 103.664062 986.128906 103.664062 C 973.21875 103.664062 955.296875 112.71875 948.554688 122.355469 L 948.554688 231.605469 L 908.476562 231.605469 L 908.476562 68.59375 L 948.746094 68.59375 L 948.746094 86.707031 C 962.042969 72.835938 979.574219 64.742188 996.917969 64.742188 Z M 996.917969 64.742188 "/>
</g>
</svg>
